<?xml version="1.0" encoding="UTF-8" standalone="no"?>
<svg version="1.1" xmlns="http://www.w3.org/2000/svg" xmlns:xlink="http://www.w3.org/1999/xlink" width="365.12" height="1144.96">
	<g id="dp_dp001" transform="matrix(1,0,0,1,29.9853,27.4853)">
		<image id="dp_image002" fill="none" x="-62.3053" y="-59.8053" width="429.76" height="999.36" xlink:href="Draw1509_images/Draw1509_001.png"/>
		<image id="dp_image003" fill="none" x="-62.3053" y="939.555" width="429.76" height="210.24" xlink:href="Draw1509_images/Draw1509_002.png"/>
		<path id="dp_path004" fill="white" fill-rule="evenodd" stroke="none" stroke-width="0" d="M 87.1267,5 C 42.3893,10.7907 6.04667,26.9293 2.896,83.9627 C 27.6293,393.26 22.908,700.4 2.5,1006.4 C 13.0053,1050.81 42.9907,1072.97 82.388,1084.38 L 228.621,1085 C 268.903,1076.95 298.247,1058.4 302.415,1015.68 C 270.061,697.639 266.244,379.596 302.499,61.5533 C 289.869,25.7693 264.055,11.6827 233.361,5.62 Z "/>
		<path id="dp_path005" fill="#e7e7e7" fill-rule="evenodd" stroke="none" stroke-width="0" d="M 80.876,15.968 C 54.4813,32.1293 36.5467,51.7227 30.02,75.956 C 43.0587,218.765 57.024,360.356 56.72,501.815 C 56.36,668.173 44.1187,833.576 31.432,1000.06 C 29.796,1021.53 67.204,1051.24 89.352,1066.12 C 51.0947,1052.19 14.6467,1023.94 14.3387,996.767 C 13.8813,956.487 43.0507,661.856 39.5547,502.203 C 36.3027,353.689 25.216,219.933 14.3387,77.1827 C 20.62,48.0707 50.292,27.64 80.876,15.968 Z "/>
		<path id="dp_path006" fill="#e7e7e7" fill-rule="evenodd" stroke="none" stroke-width="0" d="M 224.125,1066.12 C 250.52,1049.96 268.456,1030.36 274.983,1006.13 C 261.944,863.32 247.977,721.731 248.283,580.271 C 248.641,413.913 260.884,248.511 273.569,82.0253 C 275.205,60.5587 237.797,30.8427 215.649,15.968 C 253.908,29.8973 290.356,58.1467 290.664,85.3187 C 291.121,125.6 261.952,420.231 265.447,579.884 C 268.699,728.396 279.785,862.153 290.664,1004.9 C 284.383,1034.02 254.711,1054.45 224.125,1066.12 Z "/>
		<image id="dp_image007" fill="none" x="52.5747" y="340.835" width="45.44" height="408.32" xlink:href="Draw1509_images/Draw1509_003.png"/>
		<image id="dp_image008" fill="none" x="207.135" y="340.835" width="45.44" height="408.32" xlink:href="Draw1509_images/Draw1509_004.png"/>
	</g>
</svg>